<svg xmlns="http://www.w3.org/2000/svg" viewBox="0 0 64 64" role="img" aria-label="Sahir Sood">
  <rect width="64" height="64" rx="14" fill="#ffffff"/>
  <path d="M16 20c0-5.2 4.4-9 12.4-9 5.5 0 9.6 1.7 12.8 4.9l-4.4 5.2c-2.6-2.2-5.1-3.2-8.7-3.2-3.5 0-5.3 1.2-5.3 3.1 0 2.2 2.1 2.9 7.8 4.1 7.5 1.6 12.4 4.2 12.4 11.3 0 6.7-5.4 11.5-14.1 11.5-6.7 0-11.8-2.1-15.4-5.9l4.7-5c3 2.7 6.4 4.1 10.8 4.1 4.1 0 6.6-1.6 6.6-4.1 0-2.3-1.7-3.2-7.4-4.4C20.6 30.9 16 28.5 16 20Z" fill="#1a73e8"/>
  <path d="M46 17h4v30h-4z" fill="#34a853"/>
  <circle cx="48" cy="11" r="3" fill="#fbbc04"/>
</svg>
